<?xml version="1.0" encoding="UTF-8" standalone="no"?>
<!-- Created with Inkscape (http://www.inkscape.org/) -->

<svg
   xmlns:dc="http://purl.org/dc/elements/1.1/"
   xmlns:cc="http://creativecommons.org/ns#"
   xmlns:rdf="http://www.w3.org/1999/02/22-rdf-syntax-ns#"
   xmlns:svg="http://www.w3.org/2000/svg"
   xmlns="http://www.w3.org/2000/svg"
   version="1.1"
   width="400"
   height="400"
   viewBox="0 0 400 400"
   id="svg8965">
  <defs
     id="defs8967" />
  <metadata
     id="metadata8970">
    <rdf:RDF>
      <cc:Work
         rdf:about="">
        <dc:format>image/svg+xml</dc:format>
        <dc:type
           rdf:resource="http://purl.org/dc/dcmitype/StillImage" />
        <dc:title></dc:title>
      </cc:Work>
    </rdf:RDF>
  </metadata>
  <g
     transform="translate(0,-652.36218)"
     id="layer1">
    <path
       d="m 200.00001,678.628 c -9.21935,0 -17.07948,8.79547 -19.76764,21.28852 C 86.522878,708.13077 13.472042,774.5104 13.472042,854.76553 l 1.013739,0 c 4.350157,-11.86262 23.094864,-20.78191 45.618251,-20.78191 22.522845,0 41.267558,8.91929 45.618258,20.78191 l 2.02747,0 c 4.35124,-11.86262 23.09488,-20.78191 45.61826,-20.78191 22.52284,0 41.26756,8.91929 45.61825,20.78191 l 2.02748,0 c 4.35123,-11.86262 23.0954,-20.78191 45.61824,-20.78191 22.52393,0 41.2681,8.91929 45.61826,20.78191 l 2.02747,0 c 4.35125,-11.86262 23.09541,-20.78191 45.61826,-20.78191 22.52392,0 41.26809,8.91929 45.61824,20.78191 l 1.01374,0 c 0,-80.25513 -73.05083,-146.63476 -166.75977,-154.84901 C 217.07948,687.42347 209.21935,678.628 200.00001,678.628 z m -16.21983,177.91145 0,117.59371 c 0,8.60624 -2.56111,12.77906 -5.32172,15.45965 -2.76223,2.68057 -6.49496,4.13497 -10.64506,4.05494 -8.29698,-0.1622 -16.47286,-3.9414 -16.47286,-19.51459 a 16.221445,16.221445 0 1 0 -32.43965,0 c 0,30.72584 24.26594,51.48874 48.40645,51.95424 12.06917,0.2324 24.55627,-4.0501 33.95943,-13.1787 9.40588,-9.129 14.95306,-22.98122 14.95306,-38.77554 l 0,-117.59371 c -7.60872,3.6673 -13.10886,8.7268 -15.20608,14.44591 l -2.02748,0 c -2.09723,-5.71911 -7.59737,-10.77861 -15.20609,-14.44591 z"
       id="umbrella" />
  </g>
</svg>
