<?xml version="1.0" encoding="UTF-8" standalone="no"?>
<!-- Created with Inkscape (http://www.inkscape.org/) -->

<svg
   xmlns:dc="http://purl.org/dc/elements/1.1/"
   xmlns:cc="http://creativecommons.org/ns#"
   xmlns:rdf="http://www.w3.org/1999/02/22-rdf-syntax-ns#"
   xmlns:svg="http://www.w3.org/2000/svg"
   xmlns="http://www.w3.org/2000/svg"
   version="1.1"
   width="400"
   height="400"
   viewBox="0 0 400 400"
   id="svg8965">
  <defs
     id="defs8967" />
  <metadata
     id="metadata8970">
    <rdf:RDF>
      <cc:Work
         rdf:about="">
        <dc:format>image/svg+xml</dc:format>
        <dc:type
           rdf:resource="http://purl.org/dc/dcmitype/StillImage" />
        <dc:title></dc:title>
      </cc:Work>
    </rdf:RDF>
  </metadata>
  <g
     transform="translate(0,-652.36218)"
     id="layer1">
    <path
       d="m 200,654.04872 c -33.84596,11.72206 -60.00293,72.24039 -60.0034,162.43475 0,66.44269 14.28925,122.98778 35.2961,138.29758 l 0,61.10285 49.41461,0 0,-61.10285 C 245.71416,939.47125 260.0034,882.92616 260.0034,816.48347 260.00247,726.28911 233.84596,665.77078 200,654.04872 z m 0,73.71556 c 11.60842,0 20.95722,9.21427 20.95722,20.65755 0,11.4428 -9.3488,20.87509 -20.95722,20.87509 -11.60934,0 -20.95721,-9.43229 -20.95721,-20.87509 0,-11.44328 9.34787,-20.65755 20.95721,-20.65755 z m -45.88488,218.53591 -35.29609,34.79184 0,69.58357 35.29609,-34.7917 z m 91.76976,0 0,69.58371 35.29609,34.7917 0,-69.58357 z"
       id="rocket" />
  </g>
</svg>
