<?xml version="1.0" encoding="UTF-8" standalone="no"?>
<!-- Created with Inkscape (http://www.inkscape.org/) -->

<svg
   xmlns:dc="http://purl.org/dc/elements/1.1/"
   xmlns:cc="http://creativecommons.org/ns#"
   xmlns:rdf="http://www.w3.org/1999/02/22-rdf-syntax-ns#"
   xmlns:svg="http://www.w3.org/2000/svg"
   xmlns="http://www.w3.org/2000/svg"
   version="1.1"
   width="400"
   height="400"
   viewBox="0 0 400 400"
   id="svg8965">
  <g
     transform="translate(0,-652.36218)"
     id="layer1">
    <path
       d="m 192.22027,701.63777 c -79.65692,4.04271 -142.972123,70.16534 -142.972573,150.75209 4.5e-4,83.18784 67.489783,150.75254 150.752073,150.75254 83.26275,0 150.75164,-67.5647 150.75253,-150.75254 -8.9e-4,-80.58585 -63.31386,-146.69907 -142.97258,-150.75209 -2.57014,-0.12559 -5.17751,0 -7.77995,0 -2.60243,0 -5.21025,-0.12559 -7.7795,0 z m 1.2622,22.07676 c 2.19247,-0.11213 4.29657,0 6.5173,0 2.22118,0 4.32439,-0.11213 6.51776,0 67.9935,3.4605 122.15622,59.89195 122.15757,128.67533 0,71.00455 -57.60753,128.46625 -128.67533,128.46495 -71.0678,0 -128.673963,-57.4604 -128.675313,-128.46495 0,-68.78338 54.163613,-125.22111 122.158013,-128.67533 z m -41.42056,69.17406 c -10.48645,0 -18.92262,8.44559 -18.92262,18.92217 0,10.47703 8.43617,19.13343 18.92262,19.13343 10.486,0 18.92306,-8.6564 18.92306,-19.13343 0,-10.47658 -8.43706,-18.92217 -18.92306,-18.92217 z m 95.87573,0 c -10.48555,0 -18.92262,8.44559 -18.92262,18.92217 0,10.47703 8.43707,19.13343 18.92262,19.13343 10.48645,0 18.92306,-8.6564 18.92306,-19.13343 0,-10.47658 -8.43661,-18.92217 -18.92306,-18.92217 z m -47.93787,66.4402 c -41.53538,0 -83.04969,13.29746 -83.04969,29.43553 -8.9e-4,40.9774 37.19441,67.28122 83.04969,67.28122 45.85574,-9e-4 83.05014,-26.30382 83.05014,-67.28122 4.5e-4,-16.13807 -41.51475,-29.43553 -83.05014,-29.43553 z"
       id="smile" />
  </g>
</svg>
